<svg width="54" height="21" viewBox="0 0 54 21" fill="none" xmlns="http://www.w3.org/2000/svg">
<path d="M14.8786 4.72314C12.2805 4.72314 10.4294 6.49951 10.4294 8.93164V8.94824C10.4294 11.2227 12.0397 12.8994 14.3391 12.8994C15.9826 12.8994 17.0285 12.061 17.4684 11.1147H17.6345C17.6345 11.2061 17.6262 11.2974 17.6262 11.3887C17.5349 13.6797 16.7297 15.5391 14.8288 15.5391C13.7746 15.5391 13.0358 14.9912 12.7204 14.1528L12.6955 14.0698H10.5871L10.6037 14.1611C10.9855 15.9956 12.6291 17.2988 14.8288 17.2988C17.842 17.2988 19.6599 14.9082 19.6599 10.874V10.8574C19.6599 6.54102 17.4352 4.72314 14.8786 4.72314ZM14.8703 11.2559C13.509 11.2559 12.5212 10.2598 12.5212 8.87354V8.85693C12.5212 7.52051 13.5754 6.46631 14.8952 6.46631C16.2233 6.46631 17.2609 7.53711 17.2609 8.90674V8.92334C17.2609 10.2764 16.2233 11.2559 14.8703 11.2559ZM23.0204 9.23877C23.7841 9.23877 24.3402 8.65771 24.3402 7.92725C24.3402 7.18848 23.7841 6.61572 23.0204 6.61572C22.265 6.61572 21.7006 7.18848 21.7006 7.92725C21.7006 8.65771 22.265 9.23877 23.0204 9.23877ZM23.0204 15.3979C23.7841 15.3979 24.3402 14.8252 24.3402 14.0864C24.3402 13.3477 23.7841 12.7749 23.0204 12.7749C22.265 12.7749 21.7006 13.3477 21.7006 14.0864C21.7006 14.8252 22.265 15.3979 23.0204 15.3979ZM32.1915 17H34.2418V14.7007H35.8522V12.9326H34.2418V5.02197H31.212C29.5851 7.49561 27.8834 10.2515 26.3312 12.9492V14.7007H32.1915V17ZM28.3233 12.9824V12.8579C29.4855 10.8242 30.8717 8.60791 32.1002 6.73193H32.2247V12.9824H28.3233ZM40.408 17H42.5496V5.02197H40.4163L37.2869 7.22168V9.23877L40.2669 7.13037H40.408V17Z" fill="black"/>
</svg>
